<svg width="233" height="163" viewBox="0 0 233 163" fill="none" xmlns="http://www.w3.org/2000/svg">
<path d="M43.624 140.544C39.4427 140.544 35.432 138.709 31.592 135.04C27.8373 131.371 24.7653 126.037 22.376 119.04C19.9867 112.128 18.792 103.765 18.792 93.952C18.792 92.7573 18.792 91.52 18.792 90.24C18.8773 88.96 18.9627 87.6373 19.048 86.272C18.1947 86.3573 17.3413 86.4 16.488 86.4C15.72 86.4 14.9947 86.4 14.312 86.4C9.36267 86.4 5.736 85.76 3.432 84.48C1.21333 83.2 0.104 81.536 0.104 79.488C0.104 77.44 1.08533 75.1787 3.048 72.704C5.096 70.2293 7.912 67.712 11.496 65.152C15.08 62.592 19.2187 60.288 23.912 58.24C25.8747 51.1573 28.4347 43.6907 31.592 35.84C34.7493 27.9893 38.6747 19.7973 43.368 11.264C43.9653 10.1547 44.8613 9.6 46.056 9.6C46.824 9.6 47.5067 9.856 48.104 10.368C48.7013 10.88 49 11.5627 49 12.416C49 12.8427 48.872 13.3973 48.616 14.08C47.9333 15.4453 47.2507 16.8533 46.568 18.304C45.8853 19.6693 45.2027 21.0347 44.52 22.4C45.8 22.144 46.7813 22.016 47.464 22.016C48.1467 22.016 48.9573 21.9733 49.896 21.888C50.8347 21.8027 52.2853 21.632 54.248 21.376C56.9787 20.9493 59.5387 20.608 61.928 20.352C64.4027 20.096 66.7067 19.968 68.84 19.968C76.9467 19.968 82.92 21.376 86.76 24.192C90.6 27.008 92.52 30.592 92.52 34.944C92.52 40.1493 90.0027 45.8667 84.968 52.096C80.7867 57.216 75.5387 62.1653 69.224 66.944C62.9947 71.7227 55.9547 75.8187 48.104 79.232C40.3387 82.56 32.0613 84.7787 23.272 85.888C22.9307 88.3627 22.6747 90.752 22.504 93.056C22.3333 95.36 22.248 97.536 22.248 99.584C22.248 107.008 23.1013 113.109 24.808 117.888C26.6 122.752 28.776 126.549 31.336 129.28C33.9813 132.011 36.584 133.931 39.144 135.04C41.7893 136.149 43.9227 136.704 45.544 136.704C46.824 136.704 47.6773 136.491 48.104 136.064C48.4453 135.637 48.8293 135.424 49.256 135.424C50.1947 135.424 50.664 136.064 50.664 137.344C50.664 138.368 50.1947 139.051 49.256 139.392C47.464 140.16 45.5867 140.544 43.624 140.544ZM23.656 83.584C32.616 81.792 40.7227 79.0613 47.976 75.392C55.3147 71.7227 61.8 67.4987 67.432 62.72C73.064 57.9413 77.8 52.9493 81.64 47.744C83.8587 44.8427 85.4373 42.24 86.376 39.936C87.3147 37.5467 87.784 35.456 87.784 33.664C87.784 30.7627 86.76 28.4587 84.712 26.752C82.7493 24.96 80.1467 23.68 76.904 22.912C73.6613 22.144 70.1627 21.76 66.408 21.76C62.4827 21.76 58.6 22.1013 54.76 22.784C50.92 23.4667 47.5067 24.3627 44.52 25.472C43.9227 25.728 43.4107 25.7707 42.984 25.6C40.5093 31.0613 38.248 36.3093 36.2 41.344C34.2373 46.2933 32.488 51.0293 30.952 55.552C34.6213 54.3573 38.4613 53.3333 42.472 52.48C46.4827 51.6267 50.6213 51.1147 54.888 50.944H55.4C56.2533 50.944 56.68 51.1147 56.68 51.456C56.68 51.712 56.2533 52.0107 55.4 52.352C54.632 52.6933 53.3093 52.9067 51.432 52.992C47.5067 53.1627 43.7947 53.6747 40.296 54.528C36.7973 55.296 33.4693 56.2773 30.312 57.472C28.6907 62.4213 27.3253 67.072 26.216 71.424C25.192 75.776 24.3387 79.8293 23.656 83.584ZM14.824 84.608C15.5067 84.608 16.1893 84.608 16.872 84.608C17.64 84.5227 18.408 84.4373 19.176 84.352C19.5173 80.6827 20.0293 76.8853 20.712 72.96C21.3947 68.9493 22.2907 64.8107 23.4 60.544C17.9387 63.36 13.5867 66.5173 10.344 70.016C7.10133 73.4293 5.48 76.4587 5.48 79.104C5.48 80.7253 6.248 82.048 7.784 83.072C9.32 84.096 11.6667 84.608 14.824 84.608Z" fill="white"/>
<path d="M68.656 88.432C66.856 89.584 65.44 90.868 64.408 92.284C63.376 93.7 62.86 95.368 62.86 97.288C62.86 98.368 63.088 99.46 63.544 100.564C64 101.644 64.684 102.544 65.596 103.264C66.508 103.984 67.6 104.344 68.872 104.344C69.904 104.344 70.816 104.104 71.608 103.624C72.424 103.144 73.048 102.496 73.48 101.68C73.936 100.864 74.164 99.964 74.164 98.98C74.164 97.852 73.816 96.7 73.12 95.524C72.448 94.348 71.56 93.352 70.456 92.536C69.352 91.72 68.224 91.264 67.072 91.168C67.552 90.688 68.128 90.184 68.8 89.656C69.472 89.128 70.156 88.612 70.852 88.108C72.508 88.66 73.816 89.716 74.776 91.276C75.736 92.812 76.216 94.528 76.216 96.424C76.216 98.104 75.868 99.724 75.172 101.284C74.5 102.82 73.504 104.08 72.184 105.064C70.864 106.024 69.304 106.504 67.504 106.504C66.064 106.504 64.732 106.156 63.508 105.46C62.308 104.74 61.36 103.768 60.664 102.544C59.968 101.32 59.62 99.964 59.62 98.476C59.62 95.86 60.388 93.592 61.924 91.672C63.484 89.752 65.512 88.42 68.008 87.676L68.656 88.432ZM99.861 86.668C101.565 87.46 102.417 88.876 102.417 90.916C102.417 91.396 102.357 91.936 102.237 92.536C102.141 93.112 102.009 93.616 101.841 94.048L97.053 105.388C96.933 105.82 96.597 106.036 96.045 106.036C95.421 106.036 95.037 105.808 94.893 105.352L91.941 95.092L88.089 105.28C87.945 105.592 87.801 105.82 87.657 105.964C87.537 106.084 87.333 106.144 87.045 106.144C86.757 106.144 86.541 106.084 86.397 105.964C86.253 105.844 86.133 105.676 86.037 105.46L82.005 92.824C81.813 92.152 81.585 91.684 81.321 91.42C81.057 91.156 80.685 91.024 80.205 91.024C79.653 91.024 79.137 91.264 78.657 91.744L78.261 91.168C78.789 90.208 79.413 89.44 80.133 88.864C80.877 88.288 81.705 88 82.617 88C83.073 88 83.445 88.156 83.733 88.468C84.021 88.78 84.249 89.14 84.417 89.548C84.585 89.932 84.825 90.604 85.137 91.564L88.197 101.104L91.329 92.86L90.177 88.9L93.525 87.64L97.341 101.176L99.465 96.028C99.657 95.644 99.753 95.068 99.753 94.3C99.753 93.412 99.525 92.632 99.069 91.96C98.637 91.264 98.025 90.712 97.233 90.304L99.861 86.668ZM115.267 87.676C116.563 87.676 117.643 88.024 118.507 88.72C119.371 89.416 119.803 90.448 119.803 91.816C119.803 92.92 119.203 94.156 118.003 95.524C116.827 96.868 115.435 98.104 113.827 99.232C112.243 100.36 110.887 101.152 109.759 101.608C110.359 102.568 111.043 103.24 111.811 103.624C112.579 103.984 113.479 104.164 114.511 104.164C115.663 104.164 116.803 103.876 117.931 103.3C119.083 102.7 120.031 101.932 120.775 100.996L121.207 101.752C120.031 103.264 118.783 104.428 117.463 105.244C116.143 106.036 114.523 106.432 112.603 106.432C111.139 106.432 109.831 106.072 108.679 105.352C107.527 104.632 106.627 103.672 105.979 102.472C105.331 101.248 105.007 99.928 105.007 98.512C105.007 96.736 105.487 95.008 106.447 93.328C107.407 91.648 108.679 90.292 110.263 89.26C111.847 88.204 113.515 87.676 115.267 87.676ZM113.395 89.944C112.339 89.944 111.391 90.28 110.551 90.952C109.735 91.624 109.087 92.488 108.607 93.544C108.151 94.6 107.923 95.692 107.923 96.82C107.923 98.308 108.271 99.58 108.967 100.636C109.975 100.18 111.067 99.496 112.243 98.584C113.419 97.648 114.415 96.64 115.231 95.56C116.047 94.48 116.455 93.496 116.455 92.608C116.455 90.832 115.435 89.944 113.395 89.944ZM129.323 96.82C130.115 94.996 131.051 93.52 132.131 92.392L132.023 92.284C131.039 92.812 129.959 93.076 128.783 93.076C128.327 93.076 127.967 93.052 127.703 93.004C127.439 92.956 127.103 92.848 126.695 92.68L124.355 97.828L123.023 97.216L125.435 92.176C124.691 91.552 124.235 91 124.067 90.52L126.983 87.244C127.343 88.132 127.859 88.948 128.531 89.692C129.203 90.412 129.947 90.772 130.763 90.772C132.155 90.772 133.691 90.244 135.371 89.188L135.947 89.692C134.507 91.228 133.319 92.812 132.383 94.444C131.447 96.076 130.979 97.804 130.979 99.628C130.979 100.756 131.267 101.716 131.843 102.508C132.419 103.3 133.271 103.696 134.399 103.696C135.119 103.696 135.851 103.444 136.595 102.94L136.991 103.48C136.343 104.32 135.551 105.004 134.615 105.532C133.703 106.06 132.743 106.324 131.735 106.324C130.487 106.324 129.575 105.892 128.999 105.028C128.447 104.14 128.171 103.048 128.171 101.752C128.171 100.264 128.555 98.62 129.323 96.82ZM144.423 98.332H144.567C144.807 97.012 145.227 95.536 145.827 93.904C146.451 92.248 147.279 90.796 148.311 89.548C149.343 88.3 150.555 87.676 151.947 87.676C152.691 87.676 153.231 87.952 153.567 88.504C153.927 89.032 154.131 89.632 154.179 90.304C154.251 90.976 154.287 91.864 154.287 92.968V102.976C154.287 103.264 154.371 103.54 154.539 103.804C154.731 104.068 155.019 104.2 155.403 104.2C156.027 104.2 156.663 103.732 157.311 102.796L157.743 103.336C157.407 104.128 156.867 104.8 156.123 105.352C155.403 105.904 154.671 106.18 153.927 106.18C152.055 106.18 151.119 104.968 151.119 102.544V93.004C151.119 92.692 151.047 92.404 150.903 92.14C150.783 91.876 150.567 91.744 150.255 91.744C149.031 91.744 147.975 92.704 147.087 94.624C146.199 96.52 145.515 98.62 145.035 100.924C144.555 103.204 144.315 104.752 144.315 105.568L141.111 106.504V74.104L144.423 72.736V98.332ZM169.062 88.432C167.262 89.584 165.846 90.868 164.814 92.284C163.782 93.7 163.266 95.368 163.266 97.288C163.266 98.368 163.494 99.46 163.95 100.564C164.406 101.644 165.09 102.544 166.002 103.264C166.914 103.984 168.006 104.344 169.278 104.344C170.31 104.344 171.222 104.104 172.014 103.624C172.83 103.144 173.454 102.496 173.886 101.68C174.342 100.864 174.57 99.964 174.57 98.98C174.57 97.852 174.222 96.7 173.526 95.524C172.854 94.348 171.966 93.352 170.862 92.536C169.758 91.72 168.63 91.264 167.478 91.168C167.958 90.688 168.534 90.184 169.206 89.656C169.878 89.128 170.562 88.612 171.258 88.108C172.914 88.66 174.222 89.716 175.182 91.276C176.142 92.812 176.622 94.528 176.622 96.424C176.622 98.104 176.274 99.724 175.578 101.284C174.906 102.82 173.91 104.08 172.59 105.064C171.27 106.024 169.71 106.504 167.91 106.504C166.47 106.504 165.138 106.156 163.914 105.46C162.714 104.74 161.766 103.768 161.07 102.544C160.374 101.32 160.026 99.964 160.026 98.476C160.026 95.86 160.794 93.592 162.33 91.672C163.89 89.752 165.918 88.42 168.414 87.676L169.062 88.432ZM195.623 102.868C195.623 103.228 195.707 103.528 195.875 103.768C196.067 103.984 196.331 104.092 196.667 104.092C197.171 104.092 197.783 103.624 198.503 102.688L199.043 103.228C198.539 104.308 197.927 105.076 197.207 105.532C196.511 105.964 196.163 106.18 196.163 106.18C196.163 106.18 195.851 106.18 195.227 106.18C194.459 106.18 193.871 105.964 193.463 105.532C193.079 105.1 192.803 104.332 192.635 103.228C192.467 102.1 192.383 100.432 192.383 98.224C192.383 96.904 192.395 95.848 192.419 95.056L192.131 94.336H192.023C191.399 97.288 190.523 100.048 189.395 102.616C188.291 105.16 186.707 106.432 184.643 106.432C183.875 106.432 183.311 106.24 182.951 105.856C182.615 105.472 182.411 104.956 182.339 104.308C182.267 103.636 182.231 102.616 182.231 101.248V91.096C182.231 90.688 182.135 90.364 181.943 90.124C181.775 89.884 181.535 89.764 181.223 89.764C180.647 89.764 179.999 90.244 179.279 91.204L178.847 90.628C179.231 89.716 179.711 89.044 180.287 88.612C180.887 88.156 181.439 87.88 181.943 87.784C182.471 87.664 182.735 87.64 182.735 87.712C182.711 87.712 182.675 87.724 182.627 87.748C182.579 87.748 182.507 87.748 182.411 87.748C184.475 87.748 185.507 88.936 185.507 91.312V101.68C185.507 102.208 185.567 102.592 185.687 102.832C185.807 103.048 185.951 103.156 186.119 103.156C187.151 103.156 188.111 102.148 188.999 100.132C189.887 98.116 190.607 95.896 191.159 93.472C191.735 91.048 192.023 89.596 192.023 89.116L195.623 87.496V102.868ZM206.559 86.524C207.375 86.524 207.963 86.668 208.323 86.956C208.707 87.244 208.899 87.688 208.899 88.288C208.899 88.936 208.767 89.512 208.503 90.016C208.263 90.52 207.999 90.952 207.711 91.312C207.423 91.672 207.231 91.924 207.135 92.068C207.423 92.548 207.963 93.112 208.755 93.76C209.403 94.312 209.919 94.804 210.303 95.236C210.687 95.668 211.011 96.256 211.275 97C211.563 97.72 211.707 98.608 211.707 99.664C211.707 100.912 211.419 102.052 210.843 103.084C210.291 104.116 209.511 104.932 208.503 105.532C207.519 106.132 206.403 106.432 205.155 106.432C204.387 106.432 203.547 106.276 202.635 105.964C201.723 105.628 201.051 105.16 200.619 104.56L203.031 101.356C203.607 102.1 204.207 102.736 204.831 103.264C205.479 103.792 206.175 104.056 206.919 104.056C207.951 104.056 208.827 103.72 209.547 103.048C210.291 102.352 210.663 101.524 210.663 100.564C210.663 99.796 210.339 99.04 209.691 98.296C209.067 97.528 208.179 96.628 207.027 95.596C206.883 95.476 206.607 95.236 206.199 94.876C205.791 94.492 205.491 94.18 205.299 93.94L202.779 97.648L201.627 96.892L204.507 92.896C204.171 91.96 204.003 91.036 204.003 90.124C204.003 89.092 204.231 88.24 204.687 87.568C205.143 86.872 205.767 86.524 206.559 86.524ZM206.559 87.928C206.247 87.928 206.043 88.012 205.947 88.18C205.875 88.348 205.839 88.6 205.839 88.936C205.839 89.368 205.899 89.74 206.019 90.052C206.139 90.364 206.223 90.58 206.271 90.7C206.535 90.532 206.775 90.232 206.991 89.8C207.231 89.344 207.351 88.96 207.351 88.648C207.351 88.432 207.279 88.264 207.135 88.144C207.015 88 206.823 87.928 206.559 87.928ZM225.235 87.676C226.531 87.676 227.611 88.024 228.475 88.72C229.339 89.416 229.771 90.448 229.771 91.816C229.771 92.92 229.171 94.156 227.971 95.524C226.795 96.868 225.403 98.104 223.795 99.232C222.211 100.36 220.855 101.152 219.727 101.608C220.327 102.568 221.011 103.24 221.779 103.624C222.547 103.984 223.447 104.164 224.479 104.164C225.631 104.164 226.771 103.876 227.899 103.3C229.051 102.7 229.999 101.932 230.743 100.996L231.175 101.752C229.999 103.264 228.751 104.428 227.431 105.244C226.111 106.036 224.491 106.432 222.571 106.432C221.107 106.432 219.799 106.072 218.647 105.352C217.495 104.632 216.595 103.672 215.947 102.472C215.299 101.248 214.975 99.928 214.975 98.512C214.975 96.736 215.455 95.008 216.415 93.328C217.375 91.648 218.647 90.292 220.231 89.26C221.815 88.204 223.483 87.676 225.235 87.676ZM223.363 89.944C222.307 89.944 221.359 90.28 220.519 90.952C219.703 91.624 219.055 92.488 218.575 93.544C218.119 94.6 217.891 95.692 217.891 96.82C217.891 98.308 218.239 99.58 218.935 100.636C219.943 100.18 221.035 99.496 222.211 98.584C223.387 97.648 224.383 96.64 225.199 95.56C226.015 94.48 226.423 93.496 226.423 92.608C226.423 90.832 225.403 89.944 223.363 89.944Z" fill="white"/>
<path d="M149.488 122.312C149.152 122.712 148.912 123.088 148.768 123.44C148.624 123.792 148.552 124.208 148.552 124.688V128.168H150.472C151.32 128.168 151.992 128.08 152.488 127.904C153 127.712 153.472 127.456 153.904 127.136L154.264 127.496C153.336 128.872 151.904 129.56 149.968 129.56H148.552V134.24C148.552 135.456 148.36 136.424 147.976 137.144C147.592 137.864 146.976 138.552 146.128 139.208L145.624 138.704C145.864 138.448 146.04 138.096 146.152 137.648C146.264 137.216 146.32 136.792 146.32 136.376V129.56H143.872L144.952 128.168H146.32V126.08C146.32 125.392 146.52 124.728 146.92 124.088C147.32 123.432 147.808 122.84 148.384 122.312L145.072 122.288C144.464 122.288 143.936 122.4 143.488 122.624C143.04 122.832 142.608 123.168 142.192 123.632L141.784 123.272C142.568 122.296 143.4 121.544 144.28 121.016C145.16 120.488 146.064 120.224 146.992 120.224H151.096C152.248 120.224 153.32 120.168 154.312 120.056C155.32 119.928 156.056 119.664 156.52 119.264L156.76 119.528C156.248 120.296 155.544 120.952 154.648 121.496C153.752 122.04 152.904 122.312 152.104 122.312H149.488ZM166.366 134.912C166.366 135.152 166.422 135.352 166.534 135.512C166.662 135.656 166.838 135.728 167.062 135.728C167.398 135.728 167.806 135.416 168.286 134.792L168.646 135.152C168.31 135.872 167.902 136.384 167.422 136.688C166.958 136.976 166.726 137.12 166.726 137.12C166.726 137.12 166.518 137.12 166.102 137.12C165.59 137.12 165.198 136.976 164.926 136.688C164.67 136.4 164.486 135.888 164.374 135.152C164.262 134.4 164.206 133.288 164.206 131.816C164.206 130.936 164.214 130.232 164.23 129.704L164.038 129.224H163.966C163.55 131.192 162.966 133.032 162.214 134.744C161.478 136.44 160.422 137.288 159.046 137.288C158.534 137.288 158.158 137.16 157.918 136.904C157.694 136.648 157.558 136.304 157.51 135.872C157.462 135.424 157.438 134.744 157.438 133.832V127.064C157.438 126.792 157.374 126.576 157.246 126.416C157.134 126.256 156.974 126.176 156.766 126.176C156.382 126.176 155.95 126.496 155.47 127.136L155.182 126.752C155.438 126.144 155.758 125.696 156.142 125.408C156.542 125.104 156.91 124.92 157.246 124.856C157.598 124.776 157.774 124.76 157.774 124.808C157.758 124.808 157.734 124.816 157.702 124.832C157.67 124.832 157.622 124.832 157.558 124.832C158.934 124.832 159.622 125.624 159.622 127.208V134.12C159.622 134.472 159.662 134.728 159.742 134.888C159.822 135.032 159.918 135.104 160.03 135.104C160.718 135.104 161.358 134.432 161.95 133.088C162.542 131.744 163.022 130.264 163.39 128.648C163.774 127.032 163.966 126.064 163.966 125.744L166.366 124.664V134.912ZM179.369 124.784C180.009 124.784 180.425 125.024 180.617 125.504C180.809 125.968 180.905 126.616 180.905 127.448V128.192V134.984C180.905 135.16 180.961 135.344 181.073 135.536C181.185 135.712 181.345 135.8 181.553 135.8C181.825 135.8 182.057 135.712 182.249 135.536C182.441 135.36 182.633 135.136 182.825 134.864L183.185 135.224C182.945 135.736 182.585 136.184 182.105 136.568C181.625 136.936 181.169 137.12 180.737 137.12C180.097 137.12 179.601 136.92 179.249 136.52C178.897 136.12 178.721 135.512 178.721 134.696V128.336C178.721 128.096 178.697 127.896 178.649 127.736C178.601 127.576 178.481 127.496 178.289 127.496C177.633 127.496 176.961 128.128 176.273 129.392C175.585 130.656 174.993 132.072 174.497 133.64C174.017 135.192 173.777 136.216 173.777 136.712L171.689 137.336V127.064C171.689 126.84 171.625 126.64 171.497 126.464C171.385 126.272 171.217 126.176 170.993 126.176C170.609 126.176 170.193 126.52 169.745 127.208L169.385 126.824C169.593 126.248 169.937 125.768 170.417 125.384C170.897 124.984 171.377 124.784 171.857 124.784C172.529 124.784 173.025 124.944 173.345 125.264C173.681 125.584 173.849 126.024 173.849 126.584V132.896H173.945C174.377 131.472 174.793 130.232 175.193 129.176C175.593 128.12 176.153 127.128 176.873 126.2C177.593 125.256 178.425 124.784 179.369 124.784ZM195.002 134.864C195.002 135.088 195.05 135.296 195.146 135.488C195.258 135.664 195.426 135.752 195.65 135.752C195.874 135.752 196.098 135.656 196.322 135.464C196.546 135.256 196.714 135.032 196.826 134.792L197.282 135.176C197.026 135.72 196.658 136.184 196.178 136.568C195.714 136.936 195.258 137.12 194.81 137.12C194.074 137.12 193.538 136.912 193.202 136.496C192.866 136.08 192.706 135.36 192.722 134.336H192.626C191.65 136.304 190.458 137.288 189.05 137.288C187.658 137.288 186.586 136.808 185.834 135.848C185.098 134.872 184.73 133.656 184.73 132.2C184.73 131.048 184.978 129.904 185.474 128.768C185.97 127.632 186.674 126.696 187.586 125.96C188.514 125.224 189.578 124.856 190.778 124.856C191.53 124.856 192.186 125.048 192.746 125.432V115.736L195.002 114.824V134.864ZM190.634 126.272C189.738 126.272 188.994 126.552 188.402 127.112C187.826 127.672 187.402 128.352 187.13 129.152C186.858 129.936 186.722 130.672 186.722 131.36C186.722 131.904 186.818 132.504 187.01 133.16C187.202 133.816 187.514 134.384 187.946 134.864C188.378 135.328 188.93 135.56 189.602 135.56C190.818 135.56 191.642 135.04 192.074 134C192.522 132.944 192.746 131.784 192.746 130.52V127.232C192.474 126.944 192.154 126.712 191.786 126.536C191.434 126.36 191.05 126.272 190.634 126.272ZM201.193 122.576L200.401 122.864L199.417 117.872L202.009 116.984L201.193 122.576ZM201.985 134.984C201.985 135.224 202.041 135.424 202.153 135.584C202.281 135.728 202.457 135.8 202.681 135.8C202.857 135.8 203.049 135.72 203.257 135.56C203.481 135.4 203.705 135.168 203.929 134.864L204.313 135.224C203.945 135.912 203.497 136.4 202.969 136.688C202.457 136.976 201.985 137.12 201.553 137.12C200.977 137.12 200.529 136.936 200.209 136.568C199.905 136.2 199.753 135.576 199.753 134.696V125.96L201.985 125.096V134.984ZM215.111 124.784C215.751 124.784 216.167 125.024 216.359 125.504C216.551 125.968 216.647 126.616 216.647 127.448V128.192V134.984C216.647 135.16 216.703 135.344 216.815 135.536C216.927 135.712 217.087 135.8 217.295 135.8C217.567 135.8 217.799 135.712 217.991 135.536C218.183 135.36 218.375 135.136 218.567 134.864L218.927 135.224C218.687 135.736 218.327 136.184 217.847 136.568C217.367 136.936 216.911 137.12 216.479 137.12C215.839 137.12 215.343 136.92 214.991 136.52C214.639 136.12 214.463 135.512 214.463 134.696V128.336C214.463 128.096 214.439 127.896 214.391 127.736C214.343 127.576 214.223 127.496 214.031 127.496C213.375 127.496 212.703 128.128 212.015 129.392C211.327 130.656 210.735 132.072 210.239 133.64C209.759 135.192 209.519 136.216 209.519 136.712L207.431 137.336V127.064C207.431 126.84 207.367 126.64 207.239 126.464C207.127 126.272 206.959 126.176 206.735 126.176C206.351 126.176 205.935 126.52 205.487 127.208L205.127 126.824C205.335 126.248 205.679 125.768 206.159 125.384C206.639 124.984 207.119 124.784 207.599 124.784C208.271 124.784 208.767 124.944 209.087 125.264C209.423 125.584 209.591 126.024 209.591 126.584V132.896H209.687C210.119 131.472 210.535 130.232 210.935 129.176C211.335 128.12 211.895 127.128 212.615 126.2C213.335 125.256 214.167 124.784 215.111 124.784ZM226.76 124.688C227.528 124.688 228.264 124.904 228.968 125.336C229.672 125.752 230.208 126.32 230.576 127.04L228.848 127.976C228.608 127.416 228.264 126.976 227.816 126.656C227.368 126.336 226.872 126.176 226.328 126.176C225.528 126.176 224.824 126.448 224.216 126.992C223.624 127.536 223.16 128.208 222.824 129.008C222.504 129.808 222.344 130.568 222.344 131.288C222.344 132.408 222.576 133.4 223.04 134.264C223.52 135.128 224.28 135.56 225.32 135.56C226.504 135.56 227.32 135.032 227.768 133.976C228.216 132.904 228.44 131.752 228.44 130.52V129.44L230.6 128.552V135.896C230.6 137.096 230.32 138.336 229.76 139.616C229.2 140.896 228.424 141.96 227.432 142.808C226.456 143.656 225.352 144.08 224.12 144.08C223.24 144.08 222.544 143.776 222.032 143.168L224.072 141.44C224.184 141.728 224.368 141.96 224.624 142.136C224.896 142.312 225.232 142.4 225.632 142.4C226.832 142.4 227.608 141.952 227.96 141.056C228.328 140.176 228.512 139.064 228.512 137.72L228.44 135.752C228.44 135.16 228.496 134.68 228.608 134.312H228.44C227.848 135.24 227.272 135.968 226.712 136.496C226.168 137.024 225.512 137.288 224.744 137.288C223.368 137.288 222.312 136.84 221.576 135.944C220.84 135.032 220.472 133.88 220.472 132.488C220.472 131.128 220.744 129.856 221.288 128.672C221.848 127.472 222.608 126.512 223.568 125.792C224.544 125.056 225.608 124.688 226.76 124.688Z" fill="white"/>
</svg>
